<?xml version="1.0" standalone="no"?>
<!DOCTYPE svg PUBLIC "-//W3C//DTD SVG 20010904//EN"
 "http://www.w3.org/TR/2001/REC-SVG-20010904/DTD/svg10.dtd">
<svg version="1.0" xmlns="http://www.w3.org/2000/svg"
 width="293.000000pt" height="422.000000pt" viewBox="0 0 293.000000 422.000000"
 preserveAspectRatio="xMidYMid meet">
<metadata>
Created by potrace 1.15, written by Peter Selinger 2001-2017
</metadata>
<g transform="translate(0.000000,422.000000) scale(0.100000,-0.100000)"
fill="#000000" stroke="none">
<path d="M765 4174 c-20 -42 -40 -151 -50 -271 l-7 -83 43 0 c104 0 176 45
186 116 6 48 -21 138 -65 219 -22 41 -32 51 -58 53 -27 3 -33 -2 -49 -34z"/>
<path d="M1881 4164 c-50 -79 -83 -172 -76 -215 13 -74 85 -128 173 -129 l42
0 0 73 c0 98 -17 230 -37 278 -13 33 -20 39 -44 39 -24 0 -35 -9 -58 -46z"/>
<path d="M1075 3723 c-11 -2 -54 -15 -95 -28 -41 -13 -118 -36 -170 -50 -128
-35 -204 -71 -241 -113 -28 -32 -30 -39 -24 -81 14 -93 82 -176 190 -232 l61
-32 94 27 c127 36 221 83 302 150 93 78 113 117 112 231 0 131 -4 135 -117
134 -51 -1 -101 -3 -112 -6z"/>
<path d="M1480 3702 c-27 -13 -36 -25 -43 -57 -19 -91 13 -196 83 -263 54 -53
197 -122 334 -163 l110 -32 44 23 c61 33 139 105 162 151 12 22 20 58 20 85 0
43 -4 51 -44 89 -52 51 -139 88 -331 144 -162 47 -272 55 -335 23z"/>
<path d="M1284 3116 c-45 -20 -47 -29 -15 -74 57 -78 114 -93 171 -46 29 25
60 72 60 92 0 36 -153 55 -216 28z"/>
<path d="M2580 2844 c-89 -19 -230 -63 -230 -72 0 -7 377 -172 392 -172 4 0
17 19 29 43 12 23 39 61 61 85 50 55 49 89 -2 114 -43 22 -155 23 -250 2z"/>
<path d="M1270 2733 c-83 -9 -211 -37 -295 -64 -93 -30 -237 -99 -242 -115 -1
-5 19 -22 45 -39 122 -78 267 -251 311 -372 12 -32 29 -77 37 -101 20 -55 112
-155 168 -181 124 -61 242 3 302 163 99 261 148 351 251 453 34 34 88 77 119
95 l58 32 -50 23 c-71 32 -292 91 -387 103 -77 9 -241 11 -317 3z"/>
<path d="M1968 2510 c-201 -152 -343 -413 -398 -735 -19 -111 -20 -161 -20
-946 0 -783 1 -829 18 -829 83 0 324 59 426 104 l56 25 0 1215 c0 669 -3 1216
-7 1216 -5 0 -38 -23 -75 -50z"/>
<path d="M670 1337 l0 -1162 22 -14 c116 -72 292 -134 417 -147 l72 -7 -4 834
c-3 824 -3 835 -26 934 -56 249 -158 453 -296 590 -47 47 -162 135 -176 135
-5 0 -9 -490 -9 -1163z"/>
<path d="M445 2358 c-553 -576 -594 -1256 -115 -1903 74 -100 215 -253 224
-244 3 3 5 513 4 1134 l-3 1128 -110 -115z"/>
<path d="M2174 2214 c4 -137 8 -249 9 -250 9 -5 732 -163 734 -160 7 6 -27
127 -53 189 -13 33 -40 83 -59 113 -20 30 -46 77 -59 105 l-22 52 -255 94
c-140 51 -265 97 -278 100 l-24 6 7 -249z"/>
<path d="M2150 1226 l0 -275 43 -6 c64 -8 546 -55 573 -55 28 0 47 33 92 162
32 90 72 275 72 332 l0 33 -382 41 c-211 23 -386 42 -390 42 -5 0 -8 -123 -8
-274z"/>
<path d="M2328 513 l-148 -4 0 -164 0 -164 53 23 c157 70 341 210 386 294 12
22 11 22 -66 20 -43 -1 -144 -4 -225 -5z"/>
</g>
</svg>
